<svg width="31" height="31" viewBox="0 0 31 31" fill="none" xmlns="http://www.w3.org/2000/svg">
<path d="M15.6641 19.6056C15.2176 19.6056 14.9199 19.3031 14.9199 18.8494V15.5219C14.9199 15.0681 15.2176 14.7656 15.6641 14.7656C17.3012 14.7656 18.6406 13.4044 18.6406 11.7406C18.6406 10.0769 17.3012 8.71562 15.6641 8.71562C14.027 8.71562 12.6875 10.0769 12.6875 11.7406C12.6875 12.1944 12.3898 12.4969 11.9434 12.4969C11.4969 12.4969 11.1992 12.1944 11.1992 11.7406C11.1992 9.245 13.2084 7.20312 15.6641 7.20312C18.1197 7.20312 20.1289 9.245 20.1289 11.7406C20.1289 14.0094 18.4918 15.8244 16.4082 16.2025V18.8494C16.4082 19.3031 16.1105 19.6056 15.6641 19.6056Z" fill="#231F20"/>
<path d="M15.6641 30.7188C7.47852 30.7188 0.78125 23.9125 0.78125 15.5938C0.78125 7.275 7.47852 0.46875 15.6641 0.46875C19.0127 0.46875 22.1381 1.60312 24.817 3.645C25.1146 3.87188 25.1891 4.40125 24.9658 4.70375C24.7426 5.00625 24.2217 5.08188 23.924 4.855C21.5428 2.96438 18.6406 1.98125 15.6641 1.98125C8.29707 1.98125 2.26953 8.10688 2.26953 15.5938C2.26953 23.0806 8.29707 29.2063 15.6641 29.2063C23.0311 29.2063 29.0586 23.0806 29.0586 15.5938C29.0586 13.1737 28.3889 10.7538 27.1982 8.63625C26.975 8.25813 27.1238 7.80438 27.4215 7.5775C27.7936 7.35063 28.24 7.50187 28.4633 7.80438C29.8027 10.2244 30.5469 12.8713 30.5469 15.5938C30.5469 23.9125 23.8496 30.7188 15.6641 30.7188Z" fill="#231F20"/>
<path d="M15.6641 25.0466C15.2176 25.0466 14.9199 24.7441 14.9199 24.2903V22.2484C14.9199 21.7947 15.2176 21.4922 15.6641 21.4922C16.1105 21.4922 16.4082 21.7947 16.4082 22.2484V24.2903C16.4082 24.7441 16.1105 25.0466 15.6641 25.0466Z" fill="#231F20"/>
</svg>
